<svg xmlns="http://www.w3.org/2000/svg" xmlns:xlink="http://www.w3.org/1999/xlink" version="1.1" width="1024" height="768" viewBox="0 0 1024 768" xml:space="preserve">
<desc>Created with Fabric.js 6.7.1</desc>
<defs>
</defs>
<g transform="matrix(1 0 0 1 512.1888 383.9988)">
<path style="stroke: none; stroke-width: 1; stroke-dasharray: none; stroke-linecap: butt; stroke-dashoffset: 0; stroke-linejoin: miter; stroke-miterlimit: 4; fill: rgb(35,224,255); fill-rule: nonzero; opacity: 1;" transform=" translate(-512.1888, -383.9988)" d="M 405.3955 355.3781 C 397.1731 355.3781 389.7338 358.641 383.7301 363.9921 C 377.857 358.641 370.4177 355.3781 362.1953 355.3781 C 358.0188 355.3781 353.9728 356.2917 350.3185 357.7274 C 350.3185 357.7274 330.7413 367.777 330.7413 383.0472 L 330.7413 427.9441 L 350.3185 427.9441 L 350.3185 386.9626 C 350.3185 380.4369 355.6695 374.9553 362.1953 374.9553 C 368.5905 374.9553 373.9416 380.4369 373.9416 386.9626 L 373.9416 427.9441 L 393.6492 427.9441 L 393.6492 386.9626 C 393.6492 380.4369 398.8698 374.9553 405.3955 374.9553 C 411.9213 374.9553 417.2723 380.4369 417.2723 386.9626 L 417.2723 427.9441 L 436.8495 427.9441 L 436.8495 386.9626 C 436.8495 378.6097 433.4561 370.5178 427.7135 364.7751 C 421.7098 358.7715 413.879 355.3781 405.3955 355.3781 Z M 479.6616 428.7336 C 484.6213 428.7336 489.4509 427.8198 494.1499 425.8621 C 498.5878 424.0345 502.5036 421.2935 505.897 417.9 C 509.2905 414.5062 512.0317 410.4599 513.8591 406.0221 C 515.8168 401.4535 516.8613 396.6243 516.8613 391.5337 C 516.8613 386.5738 515.8168 381.7442 513.8591 377.0453 C 512.0317 372.6075 509.2905 368.6917 505.897 365.2981 C 502.5036 361.9044 498.4569 359.1634 494.1499 357.336 C 489.4509 355.3781 484.6213 354.3338 479.6616 354.3338 C 474.5708 354.3338 469.7412 355.3781 465.1732 357.336 C 460.7354 359.1634 456.6887 361.9044 453.2951 365.2981 C 449.9016 368.6917 447.1604 372.738 445.3332 377.0453 C 443.3753 381.7442 442.4613 386.5738 442.4613 391.5337 C 442.4613 396.6243 443.3753 401.4535 445.3332 406.0221 C 447.1604 410.4599 449.9016 414.5062 453.2951 417.9 C 456.6887 421.2935 460.7354 424.0345 465.1732 425.8621 C 469.7412 427.8198 474.5708 428.7336 479.6616 428.7336 Z M 462.0403 391.5337 C 462.0403 381.8747 469.8719 373.9126 479.6616 373.9126 C 489.3204 373.9126 497.2823 381.8747 497.2823 391.5337 C 497.2823 401.3232 489.3204 409.1546 479.6616 409.1546 C 469.8719 409.1546 462.0403 401.3232 462.0403 391.5337 Z M 544.6567 388.9251 L 544.6567 373.5231 L 565.4098 373.5231 L 565.4098 355.2496 L 544.6567 355.2496 L 544.6567 331.8856 L 525.0772 338.4116 L 525.0772 388.9251 C 525.0772 394.4072 526.1217 399.7588 528.2106 404.7188 C 530.2985 409.5483 533.1698 413.8557 536.9555 417.5102 C 540.6101 421.165 544.9179 424.1672 549.747 426.1249 C 554.7071 428.2133 559.9284 429.2576 565.4098 429.2576 L 565.4098 409.6788 C 553.9238 409.6788 544.6567 400.4114 544.6567 388.9251 Z M 627.5309 365.2973 C 624.0071 361.7734 619.9611 359.1631 615.6541 357.3359 C 610.9556 355.2476 606.2571 354.334 601.2976 354.334 C 596.077 354.334 591.2479 355.2476 586.6799 357.3359 C 582.373 359.1631 578.1965 361.7734 574.8031 365.2973 C 571.5403 368.5601 568.669 372.6061 566.9723 376.913 C 565.0146 381.6116 563.9704 386.5711 563.9704 391.5306 C 563.9704 396.4902 565.0146 401.4497 566.9723 406.0177 C 568.669 410.4552 571.5403 414.5012 574.8031 417.8946 C 578.1965 421.2879 582.373 424.0287 586.6799 425.8559 C 591.2479 427.8137 596.077 428.8578 601.2976 428.8578 C 606.2571 428.8578 610.9556 427.8136 615.6541 425.8559 C 620.2221 424.0287 624.0071 421.2879 627.5309 417.8946 C 630.9243 414.5012 633.6651 410.4552 635.4923 406.0177 C 637.45 401.4497 638.4942 396.4902 638.4942 391.5306 C 638.4942 386.5711 637.45 381.6116 635.4923 376.913 C 633.6651 372.4755 630.9243 368.5601 627.5309 365.2973 Z M 601.2976 409.1501 C 591.3785 409.1501 583.5476 401.3192 583.5476 391.5306 C 583.5476 381.8726 591.3785 373.9112 601.2976 373.9112 C 610.8251 373.9112 618.917 381.8726 618.917 391.5306 C 618.917 401.3192 610.8251 409.1501 601.2976 409.1501 Z M 646.064 329.2758 L 646.064 427.9532 L 665.7732 427.9532 L 665.7732 322.7496 Z M 678.0403 359.1638 L 678.0403 427.9507 L 697.7497 427.9507 L 697.7497 352.6373 Z M 783.2412 391.5365 C 783.2412 386.5766 782.3274 381.6165 780.3695 377.0482 C 778.4116 372.6103 775.8011 368.6945 772.4074 365.301 C 769.0138 361.7765 764.9675 359.1663 760.5295 357.3389 C 755.9611 355.381 751.1317 354.3367 746.0413 354.3367 C 741.0812 354.3367 736.1213 355.381 731.5529 357.3389 C 730.5086 357.7304 729.4645 358.2525 728.4202 358.7745 L 728.4202 321.7054 L 708.8414 328.2316 L 708.8414 391.5365 C 708.8414 396.627 709.8856 401.4564 711.7129 406.0249 C 713.6708 410.4628 716.2813 414.5091 719.675 417.9026 C 723.1993 421.2964 727.1149 424.0374 731.5529 425.8647 C 736.1213 427.8226 741.0812 428.7364 746.0413 428.7364 C 751.0012 428.7364 755.9611 427.8226 760.5295 425.8647 C 764.9675 423.907 768.8831 421.2964 772.4074 417.9026 C 775.8011 414.5091 778.4116 410.4628 780.3695 406.0249 C 782.3274 401.4564 783.2412 396.6272 783.2412 391.5365 Z M 728.4202 391.5365 C 728.4202 381.8776 736.3823 373.9155 746.0413 373.9155 C 755.7001 373.9155 763.6622 381.8776 763.6622 391.5365 C 763.6622 401.326 755.7001 409.1574 746.0413 409.1574 C 736.3823 409.1574 728.4202 401.326 728.4202 391.5365 Z M 789.3687 395.8414 L 789.3687 427.9506 L 808.9473 427.9506 L 808.9473 395.8414 C 808.9473 383.1804 819.2589 372.9993 831.7893 372.9993 L 831.7893 353.4204 C 826.0463 353.4204 820.5644 354.4647 815.3431 356.6836 C 810.2528 358.9025 805.6844 361.9047 801.8992 365.8205 C 797.9836 369.7361 794.8507 374.3045 792.7623 379.2646 C 790.5433 384.4857 789.3687 390.0982 789.3687 395.8414 Z M 864.2872 428.342 C 869.5081 428.342 874.4682 427.2977 879.1671 425.3398 C 883.605 423.2514 887.6513 420.5104 891.045 416.8556 L 877.3397 403.8031 C 873.946 407.4579 869.2473 409.4156 864.2872 409.4156 C 857.8914 409.4156 852.4093 406.1525 849.1463 401.0619 L 901.0953 401.0619 L 901.0953 391.6642 C 901.0953 381.7442 897.3102 372.6074 890.2617 365.5589 C 883.3439 358.6411 874.0765 354.856 864.2874 354.856 C 854.4977 354.856 845.2305 358.6411 838.3125 365.5589 C 831.3947 372.6074 827.4791 381.7442 827.4791 391.6642 C 827.4791 401.4535 831.3947 410.7209 838.3125 417.6389 C 845.2305 424.5567 854.4977 428.3418 864.2872 428.342 Z M 849.1463 382.1359 C 852.4093 377.1758 857.8914 373.7822 864.2874 373.7822 C 870.6831 373.7822 876.2956 377.1758 879.4281 382.1359 Z M 210.6566 369.9348 L 292.0808 332.754 C 314.983 318.7312 318.719 302.2263 319.154 294.9079 L 155.1029 371.8028 C 142.141 377.4864 131.9799 388.103 126.8695 401.3013 C 121.7591 414.4999 122.1215 429.191 127.8762 442.1214 C 139.3656 468.1966 169.663 479.8396 198.2203 469.1178 C 235.4779 455.095 246.8394 434.4447 250.3195 424.9256 L 198.6298 447.5463 C 198.2904 447.6911 197.9238 447.761 197.555 447.751 C 196.4483 447.8329 195.4148 447.1921 194.9961 446.1645 C 194.6819 445.5235 194.6496 444.7806 194.9073 444.115 C 195.1648 443.4492 195.6886 442.9213 196.3523 442.6588 L 252.9808 417.8886 C 272.147 407.0389 276.4203 398.7736 276.5994 393.7582 C 276.6284 390.8382 275.4085 388.0452 273.2473 386.0815 L 203.8755 413.9735 C 203.5569 414.0948 203.2184 414.1557 202.8775 414.1526 C 201.4643 414.4282 200.0952 413.506 199.8196 412.0927 C 199.5441 410.6794 200.4663 409.3104 201.8796 409.0348 L 272.7355 380.7078 C 290.9037 371.6237 300.7554 362.0534 301.1905 353.0461 C 301.5743 345.6765 295.5865 340.2516 293.0532 338.3068 L 212.8572 374.7967 C 212.5095 374.9459 212.1354 375.0242 211.7569 375.027 C 210.7121 375.0237 209.7638 374.415 209.326 373.4661 C 209.0017 372.8259 208.9613 372.0792 209.2141 371.4077 C 209.4672 370.7363 209.9905 370.2017 210.6566 369.9348 Z M 170.2004 451.3334 C 169.8624 452.4524 168.8094 453.2002 167.6415 453.1503 C 167.3447 453.15 167.0504 453.0981 166.7715 452.9967 C 153.589 448.4736 144.4079 436.4821 143.4801 422.5763 C 142.5522 408.6704 150.059 395.5656 162.5237 389.3313 C 163.831 388.6601 165.4349 389.1755 166.1061 390.4828 C 166.7773 391.7901 166.262 393.3941 164.9546 394.0653 C 154.4155 399.3496 148.0708 410.4363 148.8528 422.1999 C 149.6348 433.9636 157.3913 444.1127 168.5371 447.9557 C 169.2231 448.1578 169.7935 448.6381 170.1095 449.2799 C 170.4256 449.9214 170.4586 450.6663 170.2004 451.3334 Z" stroke-linecap="round"/>
</g>
</svg>